<svg xmlns="http://www.w3.org/2000/svg" viewBox="0 0 400 520" fill="none">
  <rect width="400" height="520" rx="4" fill="#ffffff" stroke="#e4e4e7" stroke-width="1"/>
  <rect x="20" y="20" width="200" height="12" rx="2" fill="#c2410c"/>
  <rect x="20" y="38" width="120" height="8" rx="2" fill="#888"/>
  <rect x="20" y="54" width="360" height="1" fill="#ddd"/>
  <rect x="20" y="70" width="80" height="8" rx="2" fill="#c2410c"/>
  <rect x="20" y="84" width="210" height="6" rx="1" fill="#ccc"/>
  <rect x="20" y="94" width="200" height="6" rx="1" fill="#ccc"/>
  <rect x="20" y="104" width="180" height="6" rx="1" fill="#ccc"/>
  <rect x="20" y="124" width="80" height="8" rx="2" fill="#c2410c"/>
  <rect x="20" y="138" width="100" height="7" rx="1" fill="#555"/>
  <rect x="20" y="150" width="210" height="5" rx="1" fill="#ccc"/>
  <rect x="20" y="160" width="200" height="5" rx="1" fill="#ccc"/>
  <rect x="250" y="70" width="50" height="8" rx="2" fill="#c2410c"/>
  <rect x="250" y="84" width="55" height="16" rx="3" fill="#fff7ed" stroke="#fed7aa" stroke-width="1"/>
  <rect x="310" y="84" width="55" height="16" rx="3" fill="#fff7ed" stroke="#fed7aa" stroke-width="1"/>
  <rect x="250" y="106" width="55" height="16" rx="3" fill="#fff7ed" stroke="#fed7aa" stroke-width="1"/>
  <rect x="310" y="106" width="55" height="16" rx="3" fill="#fff7ed" stroke="#fed7aa" stroke-width="1"/>
  <rect x="250" y="136" width="70" height="8" rx="2" fill="#c2410c"/>
  <rect x="250" y="150" width="130" height="5" rx="1" fill="#ccc"/>
</svg>
