<svg xmlns="http://www.w3.org/2000/svg" viewBox="0 0 400 520" fill="none">
  <rect width="400" height="520" rx="4" fill="#ffffff" stroke="#e4e4e7" stroke-width="1"/>
  <rect x="120" y="24" width="160" height="14" rx="2" fill="#15803d"/>
  <rect x="150" y="44" width="100" height="8" rx="2" fill="#888"/>
  <rect x="100" y="60" width="200" height="6" rx="1" fill="#aaa"/>
  <rect x="40" y="86" width="80" height="8" rx="2" fill="#15803d"/>
  <rect x="40" y="100" width="320" height="5" rx="1" fill="#ccc"/>
  <rect x="40" y="110" width="300" height="5" rx="1" fill="#ccc"/>
  <rect x="40" y="120" width="280" height="5" rx="1" fill="#ccc"/>
  <rect x="40" y="144" width="100" height="8" rx="2" fill="#15803d"/>
  <rect x="40" y="158" width="140" height="7" rx="1" fill="#555"/>
  <rect x="40" y="170" width="320" height="5" rx="1" fill="#ccc"/>
  <rect x="40" y="180" width="310" height="5" rx="1" fill="#ccc"/>
  <rect x="40" y="214" width="50" height="8" rx="2" fill="#15803d"/>
  <rect x="40" y="228" width="90" height="5" rx="1" fill="#ccc"/>
  <rect x="155" y="228" width="90" height="5" rx="1" fill="#ccc"/>
  <rect x="270" y="228" width="90" height="5" rx="1" fill="#ccc"/>
  <rect x="40" y="240" width="90" height="5" rx="1" fill="#ccc"/>
  <rect x="155" y="240" width="90" height="5" rx="1" fill="#ccc"/>
  <rect x="270" y="240" width="90" height="5" rx="1" fill="#ccc"/>
</svg>
